<?xml version="1.0" encoding="utf-8"?>
<!-- Generator: Adobe Illustrator 25.1.0, SVG Export Plug-In . SVG Version: 6.00 Build 0)  -->
<svg version="1.1" id="Layer_1" xmlns="http://www.w3.org/2000/svg" xmlns:xlink="http://www.w3.org/1999/xlink" x="0px" y="0px"
	 viewBox="0 0 14 14" style="enable-background:new 0 0 14 14;" xml:space="preserve">
<style type="text/css">
	.st0{fill:#D31342;}
</style>
<path class="st0" d="M13.8,6.8c0.3-0.3,0.2-0.7-0.1-1L7.5,0.2c-0.3-0.3-0.7-0.3-1,0L0.2,6.1c-0.3,0.3-0.3,0.7,0,1l0.2,0.2
	C0.6,7.6,1,7.6,1.3,7.4l0.5-0.4v6.4c0,0.4,0.3,0.7,0.7,0.7h2.4c0.4,0,0.7-0.3,0.7-0.7V8.8h3.1v4.4C8.7,13.7,9,14,9.3,14h2.6
	c0.4,0,0.7-0.3,0.7-0.7V7c0,0,0.1,0.1,0.3,0.3c0.2,0.1,0.5,0,0.7-0.3L13.8,6.8z"/>
</svg>
