
<svg aria-hidden="true" style="position:absolute;width:0;height:0" xmlns="http://www.w3.org/2000/svg" overflow="hidden"><defs>
<symbol id="Logo" viewBox="0 0 35 35">
<path fill="#d41443" style="fill: var(--color1, #d41443)" d="M8.837 15.626h14.815v-1.291c0-1.212-0.29-2.354-0.807-3.363-1.295 1.626-3.761 2.726-6.594 2.726-2.838 0-5.312-1.105-6.603-2.739-0.517 1.014-0.811 2.16-0.811 3.372v1.291zM16.002 0c8.837 0 16.002 7.165 16.002 16.002 0 6.938-4.414 12.841-10.587 15.059l0.161-0.058v-1.754c2.238-0.223 4.005-2.126 4.005-4.422v-2.093c0-0.186-0.012-0.368-0.033-0.546h0.033v-1.386c1.034-0.368 1.779-1.357 1.779-2.511v0c0-1.212-0.819-2.242-1.932-2.565v-1.394c0-1.973-0.621-3.802-1.68-5.3l0.004-0.017h-0.012c-1.663-2.342-4.402-3.872-7.492-3.872-5.072 0-9.184 4.112-9.184 9.184v1.398c-1.105 0.327-1.92 1.353-1.92 2.561v0c0 1.158 0.749 2.147 1.783 2.515v1.7c-0.004 0.074-0.004 0.153-0.004 0.228v2.093c0 2.292 1.762 4.195 3.996 4.422v1.928c-6.342-2.126-10.913-8.117-10.913-15.175 0-8.837 7.165-16.002 16.002-16.002zM20.867 31.247c-0.074 0.025-0.149 0.046-0.223 0.070l0.223-0.070zM20.507 31.359c-0.095 0.029-0.186 0.054-0.281 0.079 0.095-0.025 0.186-0.054 0.281-0.079zM20.197 31.446c-0.12 0.033-0.244 0.066-0.368 0.095 0.124-0.029 0.244-0.062 0.368-0.095zM19.8 31.549c-1.216 0.298-2.49 0.455-3.802 0.455-1.134 0-2.242-0.12-3.31-0.343v-2.387h7.112v2.275zM21.773 9.412c-1.357-1.522-3.33-2.482-5.531-2.482-2.197 0-4.166 0.956-5.523 2.474 0.72 1.46 2.925 2.524 5.531 2.524 2.602 0 4.799-1.059 5.523-2.511zM8.692 20.962v1.733c0 0.017 0 0.033 0 0.046v2.093c0 1.465 1.204 2.668 2.668 2.668h9.78c1.465 0 2.668-1.204 2.668-2.668v-3.872h-1.973v1.804c0 1.469-1.2 2.668-2.668 2.668v0c-1.469 0-2.668-1.2-2.668-2.668v-1.804h-7.807zM20.052 20.962v-1.779h4.642c0.488 0 0.889-0.401 0.889-0.889v0c0-0.488-0.401-0.889-0.889-0.889h-16.891c-0.488 0-0.889 0.401-0.889 0.889v0c0 0.488 0.401 0.889 0.889 0.889h10.471v3.583c0 0.488 0.401 0.889 0.889 0.889v0c0.488 0 0.889-0.401 0.889-0.889v-1.804z"></path>
</symbol>
<symbol id="Burger" viewBox="0 0 46 32">
<path fill="none" stroke="var(--color1, #d41443)" stroke-width="2.286" d="M0 2.294h45.714M0 16.008h45.714M0 29.722h45.714"/>
</symbol><symbol id="Close" viewBox="0 0 32 32">
<path fill="none" stroke="var(--color2, #fff)" stroke-width="2" d="M2.522 2.001L29.5 30.019m-27.499-.52L30.019 2.521"/>
</symbol>
<symbol id="Ellipse" viewBox="0 0 35 32">
<path fill="var(--color3, #d9d9d9)" d="M33.089 16.005c0 8.846-7.171 16.017-16.017 16.017S1.055 24.851 1.055 16.005 8.226-.012 17.072-.012s16.017 7.171 16.017 16.017z"/></symbol>
<symbol id="Facebook" viewBox="0 0 16 32">
<path fill="var(--color2, #fff)" d="M14.266 15.97H10.09v15.39H3.762V15.968H.754V10.56h3.008V7.062C3.762 4.558 4.946.64 10.146.64l4.688.019v5.25h-3.402c-.557 0-1.342.282-1.342 1.475v3.184h4.73l-.554 5.4z"/></symbol>
<symbol id="Github" viewBox="0 0 32 32">
<path fill="var(--color2, #fff)" d="M16 .941C7.728.941.941 7.73.941 16c0 7.059 4.954 13.47 11.53 15.059v-4.982c-.651.144-1.251.147-1.915-.048-.89-.264-1.613-.856-2.149-1.76-.342-.576-.949-1.203-1.581-1.157l-.155-1.758c1.368-.117 2.55.834 3.253 2.014.312.525.672.832 1.133.968.445.131.923.069 1.482-.128.139-1.117.651-1.536 1.037-2.123-3.922-.586-5.485-2.667-6.106-4.309-.822-2.181-.381-4.906 1.072-6.627.029-.032.08-.122.061-.182-.667-2.014.144-3.68.176-3.856.768.227.893-.229 3.341 1.258l.422.254c.176.106.122.045.299.032a12.465 12.465 0 013.15-.445h.01c1.147.018 2.247.183 3.294.478l-.09-.022.138.014c-.013-.002.037-.01.12-.059 3.056-1.851 2.947-1.246 3.766-1.512.03.176.832 1.869.171 3.856-.088.275 2.651 2.784 1.133 6.811-.621 1.643-2.184 3.723-6.106 4.309.502.768 1.107 1.174 1.104 2.755v6.219c6.576-1.589 11.53-8 11.53-15.059 0-8.272-6.787-15.059-15.059-15.059z"/></symbol>
<symbol id="Home" viewBox="0 0 35 32">
<path fill="var(--color4, #d31342)" d="M32.675 15.404c.256-.275.413-.644.413-1.051 0-.47-.21-.891-.542-1.174l-.002-.002L17.755.414a1.852 1.852 0 00-1.185-.426c-.466 0-.893.171-1.219.454l.002-.002L.516 13.857a1.529 1.529 0 00-.515 1.146c0 .42.169.801.443 1.078l.374.382c.614.635 1.612.71 2.226.168l1.108-.98v14.343c.006.88.721 1.591 1.602 1.591h5.808c.881 0 1.596-.711 1.602-1.591V19.959h7.379v10.035c-.013.881.625 1.591 1.516 1.591h6.14c.881 0 1.596-.711 1.602-1.59V15.854l.686.593c.376.326 1.169.064 1.767-.587l.422-.454z"/></symbol>
<symbol id="Quotes" viewBox="0 0 43 32">
<path fill="var(--color5, #e1e1e1)" d="M32.019-.002c1.928 0 3.75.52 5.465 1.561s3.108 2.537 4.179 4.489c1.029 1.951 1.543 4.25 1.543 6.895s-.643 5.225-1.928 7.741c-.429.911-1.2 2.081-2.316 3.512a63.366 63.366 0 01-3.214 3.708l-4.051 4.098-2.893-4.813a22.23 22.23 0 005.307-4.647l.03-.037c1.543-1.821 2.314-3.491 2.314-5.009 0-.781-.171-1.41-.514-1.887a8.363 8.363 0 01-5.015 1.627c-1.328 0-2.593-.412-3.793-1.236a8.627 8.627 0 01-2.936-3.079l-.022-.043c-.771-1.258-1.157-2.559-1.157-3.903 0-1.519.45-2.971 1.35-4.359a10.326 10.326 0 013.364-3.357l.044-.025C29.147.41 30.56-.002 32.018-.002zm-23.082 0c1.928 0 3.75.52 5.465 1.561s3.108 2.536 4.179 4.489c1.029 1.951 1.543 4.25 1.543 6.895 0 1.864-.236 3.534-.707 5.009-.472 1.518-1.286 3.1-2.444 4.749-1.115 1.561-2.164 2.862-3.15 3.903-.986 1.084-2.7 2.884-5.144 5.399L5.786 27.19a22.23 22.23 0 005.307-4.647l.03-.037c1.543-1.821 2.315-3.491 2.315-5.009 0-.781-.172-1.41-.514-1.887a8.363 8.363 0 01-5.015 1.627c-1.328 0-2.593-.412-3.793-1.236a8.635 8.635 0 01-2.936-3.079l-.022-.043C.387 11.621.001 10.32.001 8.976c0-1.519.429-2.971 1.286-4.359A10.326 10.326 0 014.651 1.26l.045-.025C6.067.411 7.48-.001 8.939-.001z"/></symbol>
<symbol id="Telegram" viewBox="0 0 40 32">
<path fill="var(--color2, #fff)" d="M16.206 20.76l-.636 8.34c.908 0 1.302-.366 1.774-.802l4.26-3.8 8.83 6.034c1.62.84 2.76.398 3.196-1.39l5.796-25.346h.002c.514-2.236-.866-3.108-2.444-2.56L2.92 13.408c-2.324.84-2.29 2.052-.396 2.6l8.71 2.528 20.23-11.814c.952-.588 1.816-.264 1.104.326L16.206 20.76z"/></symbol>
<symbol id="Vector" viewBox="0 0 26 32">
<path fill="none" stroke-linejoin="round" stroke-linecap="round" stroke-width="6.4" d="M3.565 3.2L20.391 16 3.565 28.8"/></symbol>
<symbol id="Arrow" viewBox="0 0 32 32">
<path fill="var(--color1, #d41443)" d="M19.414 27.414l10-10a2 2 0 000-2.828l-10-10a2 2 0 10-2.828 2.828L23.172 14H4a2 2 0 100 4h19.172l-6.586 6.586c-.39.39-.586.902-.586 1.414s.195 1.024.586 1.414a2 2 0 002.828 0z"/></symbol>
<symbol id="Logo" viewBox="0 0 35 35"><path fill="#d41443" style="fill: var(--color1, #d41443)" d="M8.837 15.626h14.815v-1.291c0-1.212-0.29-2.354-0.807-3.363-1.295 1.626-3.761 2.726-6.594 2.726-2.838 0-5.312-1.105-6.603-2.739-0.517 1.014-0.811 2.16-0.811 3.372v1.291zM16.002 0c8.837 0 16.002 7.165 16.002 16.002 0 6.938-4.414 12.841-10.587 15.059l0.161-0.058v-1.754c2.238-0.223 4.005-2.126 4.005-4.422v-2.093c0-0.186-0.012-0.368-0.033-0.546h0.033v-1.386c1.034-0.368 1.779-1.357 1.779-2.511v0c0-1.212-0.819-2.242-1.932-2.565v-1.394c0-1.973-0.621-3.802-1.68-5.3l0.004-0.017h-0.012c-1.663-2.342-4.402-3.872-7.492-3.872-5.072 0-9.184 4.112-9.184 9.184v1.398c-1.105 0.327-1.92 1.353-1.92 2.561v0c0 1.158 0.749 2.147 1.783 2.515v1.7c-0.004 0.074-0.004 0.153-0.004 0.228v2.093c0 2.292 1.762 4.195 3.996 4.422v1.928c-6.342-2.126-10.913-8.117-10.913-15.175 0-8.837 7.165-16.002 16.002-16.002zM20.867 31.247c-0.074 0.025-0.149 0.046-0.223 0.070l0.223-0.070zM20.507 31.359c-0.095 0.029-0.186 0.054-0.281 0.079 0.095-0.025 0.186-0.054 0.281-0.079zM20.197 31.446c-0.12 0.033-0.244 0.066-0.368 0.095 0.124-0.029 0.244-0.062 0.368-0.095zM19.8 31.549c-1.216 0.298-2.49 0.455-3.802 0.455-1.134 0-2.242-0.12-3.31-0.343v-2.387h7.112v2.275zM21.773 9.412c-1.357-1.522-3.33-2.482-5.531-2.482-2.197 0-4.166 0.956-5.523 2.474 0.72 1.46 2.925 2.524 5.531 2.524 2.602 0 4.799-1.059 5.523-2.511zM8.692 20.962v1.733c0 0.017 0 0.033 0 0.046v2.093c0 1.465 1.204 2.668 2.668 2.668h9.78c1.465 0 2.668-1.204 2.668-2.668v-3.872h-1.973v1.804c0 1.469-1.2 2.668-2.668 2.668v0c-1.469 0-2.668-1.2-2.668-2.668v-1.804h-7.807zM20.052 20.962v-1.779h4.642c0.488 0 0.889-0.401 0.889-0.889v0c0-0.488-0.401-0.889-0.889-0.889h-16.891c-0.488 0-0.889 0.401-0.889 0.889v0c0 0.488 0.401 0.889 0.889 0.889h10.471v3.583c0 0.488 0.401 0.889 0.889 0.889v0c0.488 0 0.889-0.401 0.889-0.889v-1.804z"></path></symbol><symbol id="Burger" viewBox="0 0 46 32"><path fill="none" stroke="var(--color1, #d41443)" stroke-width="2.286" d="M0 2.294h45.714M0 16.008h45.714M0 29.722h45.714"/></symbol><symbol id="Close" viewBox="0 0 32 32"><path fill="none" stroke="var(--color2, #fff)" stroke-width="2" d="M2.522 2.001L29.5 30.019m-27.499-.52L30.019 2.521"/></symbol><symbol id="Ellipse" viewBox="0 0 35 32"><path fill="var(--color3, #d9d9d9)" d="M33.089 16.005c0 8.846-7.171 16.017-16.017 16.017S1.055 24.851 1.055 16.005 8.226-.012 17.072-.012s16.017 7.171 16.017 16.017z"/></symbol><symbol id="Facebook" viewBox="0 0 16 32"><path fill="var(--color2, #fff)" d="M14.266 15.97H10.09v15.39H3.762V15.968H.754V10.56h3.008V7.062C3.762 4.558 4.946.64 10.146.64l4.688.019v5.25h-3.402c-.557 0-1.342.282-1.342 1.475v3.184h4.73l-.554 5.4z"/></symbol><symbol id="Github" viewBox="0 0 32 32"><path fill="var(--color2, #fff)" d="M16 .941C7.728.941.941 7.73.941 16c0 7.059 4.954 13.47 11.53 15.059v-4.982c-.651.144-1.251.147-1.915-.048-.89-.264-1.613-.856-2.149-1.76-.342-.576-.949-1.203-1.581-1.157l-.155-1.758c1.368-.117 2.55.834 3.253 2.014.312.525.672.832 1.133.968.445.131.923.069 1.482-.128.139-1.117.651-1.536 1.037-2.123-3.922-.586-5.485-2.667-6.106-4.309-.822-2.181-.381-4.906 1.072-6.627.029-.032.08-.122.061-.182-.667-2.014.144-3.68.176-3.856.768.227.893-.229 3.341 1.258l.422.254c.176.106.122.045.299.032a12.465 12.465 0 013.15-.445h.01c1.147.018 2.247.183 3.294.478l-.09-.022.138.014c-.013-.002.037-.01.12-.059 3.056-1.851 2.947-1.246 3.766-1.512.03.176.832 1.869.171 3.856-.088.275 2.651 2.784 1.133 6.811-.621 1.643-2.184 3.723-6.106 4.309.502.768 1.107 1.174 1.104 2.755v6.219c6.576-1.589 11.53-8 11.53-15.059 0-8.272-6.787-15.059-15.059-15.059z"/></symbol><symbol id="Home" viewBox="0 0 35 32"><path fill="var(--color4, #d31342)" d="M32.675 15.404c.256-.275.413-.644.413-1.051 0-.47-.21-.891-.542-1.174l-.002-.002L17.755.414a1.852 1.852 0 00-1.185-.426c-.466 0-.893.171-1.219.454l.002-.002L.516 13.857a1.529 1.529 0 00-.515 1.146c0 .42.169.801.443 1.078l.374.382c.614.635 1.612.71 2.226.168l1.108-.98v14.343c.006.88.721 1.591 1.602 1.591h5.808c.881 0 1.596-.711 1.602-1.591V19.959h7.379v10.035c-.013.881.625 1.591 1.516 1.591h6.14c.881 0 1.596-.711 1.602-1.59V15.854l.686.593c.376.326 1.169.064 1.767-.587l.422-.454z"/></symbol><symbol id="Quotes" viewBox="0 0 43 32"><path fill="var(--color5, #e1e1e1)" d="M32.019-.002c1.928 0 3.75.52 5.465 1.561s3.108 2.537 4.179 4.489c1.029 1.951 1.543 4.25 1.543 6.895s-.643 5.225-1.928 7.741c-.429.911-1.2 2.081-2.316 3.512a63.366 63.366 0 01-3.214 3.708l-4.051 4.098-2.893-4.813a22.23 22.23 0 005.307-4.647l.03-.037c1.543-1.821 2.314-3.491 2.314-5.009 0-.781-.171-1.41-.514-1.887a8.363 8.363 0 01-5.015 1.627c-1.328 0-2.593-.412-3.793-1.236a8.627 8.627 0 01-2.936-3.079l-.022-.043c-.771-1.258-1.157-2.559-1.157-3.903 0-1.519.45-2.971 1.35-4.359a10.326 10.326 0 013.364-3.357l.044-.025C29.147.41 30.56-.002 32.018-.002zm-23.082 0c1.928 0 3.75.52 5.465 1.561s3.108 2.536 4.179 4.489c1.029 1.951 1.543 4.25 1.543 6.895 0 1.864-.236 3.534-.707 5.009-.472 1.518-1.286 3.1-2.444 4.749-1.115 1.561-2.164 2.862-3.15 3.903-.986 1.084-2.7 2.884-5.144 5.399L5.786 27.19a22.23 22.23 0 005.307-4.647l.03-.037c1.543-1.821 2.315-3.491 2.315-5.009 0-.781-.172-1.41-.514-1.887a8.363 8.363 0 01-5.015 1.627c-1.328 0-2.593-.412-3.793-1.236a8.635 8.635 0 01-2.936-3.079l-.022-.043C.387 11.621.001 10.32.001 8.976c0-1.519.429-2.971 1.286-4.359A10.326 10.326 0 014.651 1.26l.045-.025C6.067.411 7.48-.001 8.939-.001z"/></symbol><symbol id="Telegram" viewBox="0 0 40 32"><path fill="var(--color2, #fff)" d="M16.206 20.76l-.636 8.34c.908 0 1.302-.366 1.774-.802l4.26-3.8 8.83 6.034c1.62.84 2.76.398 3.196-1.39l5.796-25.346h.002c.514-2.236-.866-3.108-2.444-2.56L2.92 13.408c-2.324.84-2.29 2.052-.396 2.6l8.71 2.528 20.23-11.814c.952-.588 1.816-.264 1.104.326L16.206 20.76z"/></symbol><symbol id="Vector" viewBox="0 0 26 32"><path fill="none" stroke="var(--color1, #d41443)" stroke-linejoin="round" stroke-linecap="round" stroke-width="6.4" d="M3.565 3.2L20.391 16 3.565 28.8"/></symbol><symbol id="Arrow" viewBox="0 0 32 32"><path fill="var(--color1, #d41443)" d="M19.414 27.414l10-10a2 2 0 000-2.828l-10-10a2 2 0 10-2.828 2.828L23.172 14H4a2 2 0 100 4h19.172l-6.586 6.586c-.39.39-.586.902-.586 1.414s.195 1.024.586 1.414a2 2 0 002.828 0z"/></symbol><symbol id="Logo1" viewBox="0 0 32 32">
<path fill="#d41442" style="fill: var(--color1, #d41442)" d="M32 16c0 8.837-7.163 16-16 16s-16-7.163-16-16c0-8.837 7.163-16 16-16s16 7.163 16 16z"></path>
<path fill="#fff" style="fill: var(--color2, #fff)" d="M10.88 31.168c0.64 0.192 1.28 0.384 1.92 0.512v-2.24h7.040v2.048c0.64-0.128 1.28-0.32 1.92-0.576v-1.6c0.96-0.192 1.728-0.64 2.368-1.216 0.768-0.768 1.216-1.728 1.408-2.688 0.384-1.536 0.256-3.328 0.128-4.608 0.64-0.256 1.152-0.64 1.472-1.152 0.448-0.64 0.512-1.472 0.32-2.112l-0.006-0.022c-0.284-0.93-0.989-1.677-1.914-2.026v-0.064c-0.064-1.728-0.256-4.224-1.408-6.272-0.832-1.472-1.92-2.496-3.264-3.136s-2.88-0.896-4.544-0.896c-3.392 0-6.464 1.92-7.872 3.968-1.6 2.304-1.856 4.928-1.792 6.72-1.152 0.768-1.728 1.792-1.536 2.944l0.003 0.017c0.159 0.889 0.734 1.633 1.533 2.031v0.256c0 1.344-0.064 2.88 0.384 4.48l0.010 0.035c0.349 1.097 1.072 2.027 2.038 2.653 0.64 0.448 1.216 0.768 1.792 0.96v1.984zM17.408 11.648c-2.048 0.32-4.416-0.064-6.784-2.112 1.47-1.499 3.5-2.445 5.75-2.496l0.010-0c1.536 0 2.752 0.192 3.712 0.704 0.768 0.384 1.472 0.896 2.048 1.728-1.152 0.896-2.816 1.856-4.736 2.176zM17.728 13.568c2.112-0.32 3.968-1.344 5.248-2.368 0.448 1.344 0.576 2.816 0.64 4.16h-15.040c0-1.28 0.192-2.816 0.896-4.224 2.816 2.304 5.696 2.816 8.256 2.432zM25.536 18.56c-0.128 0.192-0.384 0.448-1.024 0.64h-4.672v2.496c0 0.512 0 0.896-0.064 1.28s-0.128 0.512-0.192 0.576c0 0.064-0.064 0.128-0.384 0.128-0.512 0-0.768-0.128-0.832-0.192-0.128-0.064-0.192-0.192-0.32-0.512-0.064-0.32-0.128-0.704-0.128-1.216v-2.56h-10.112c-0.384-0.128-0.704-0.448-0.704-0.768-0.064-0.192 0-0.704 0.832-1.152h16.832c0.064 0 0.192 0 0.384 0.128s0.32 0.384 0.384 0.576c0.128 0.256 0.128 0.448 0 0.576zM8.64 21.312v-0.192h7.36v0.704c0 0.576 0.064 1.152 0.192 1.664 0.128 0.576 0.448 1.088 1.024 1.536 0.576 0.384 1.216 0.576 1.984 0.576 0.704 0 1.344-0.256 1.792-0.768 0.448-0.448 0.576-1.088 0.704-1.6 0.064-0.512 0.064-1.088 0.064-1.6v-0.512h1.984c0.128 1.28 0.192 2.688-0.064 3.904-0.192 0.704-0.448 1.28-0.896 1.728-0.384 0.384-1.024 0.704-2.048 0.768h-8.768c-0.512-0.128-1.152-0.448-1.728-0.896-0.64-0.448-1.152-1.024-1.28-1.664-0.384-1.216-0.384-2.368-0.32-3.648z"></path>
</symbol>
    </defs>
</svg>
