<?xml version="1.0" encoding="utf-8"?>
<!-- Generator: Adobe Illustrator 25.1.0, SVG Export Plug-In . SVG Version: 6.00 Build 0)  -->
<svg version="1.1" id="Layer_1" xmlns="http://www.w3.org/2000/svg" xmlns:xlink="http://www.w3.org/1999/xlink" x="0px" y="0px"
	 viewBox="0 0 50 50" style="enable-background:new 0 0 50 50;" xml:space="preserve">
<style type="text/css">
	.st0{fill:#D41442;}
	.st1{fill-rule:evenodd;clip-rule:evenodd;fill:#FFFFFF;}
</style>
<circle id="Circle" class="st0" cx="25" cy="25" r="25"/>
<path id="IceCream" class="st1" d="M17,48.7v-3.1c-0.9-0.3-1.8-0.8-2.8-1.5c-1.3-0.9-2.7-2.3-3.2-4.2c-0.7-2.5-0.6-4.9-0.6-7l0,0
	c0-0.1,0-0.3,0-0.4c-1.2-0.6-2.2-1.8-2.4-3.2c-0.3-1.8,0.6-3.4,2.4-4.6c-0.1-2.8,0.3-6.9,2.8-10.5C15.4,11,20.2,8,25.5,8
	c2.6,0,5,0.4,7.1,1.4c2.1,1,3.8,2.6,5.1,4.9c1.8,3.2,2.1,7.1,2.2,9.8l0,0.1c0.5,0.2,0.9,0.4,1.3,0.7c0.8,0.6,1.4,1.5,1.7,2.5
	c0.3,1,0.2,2.3-0.5,3.3c-0.5,0.8-1.3,1.4-2.3,1.8c0.2,2,0.4,4.8-0.2,7.2c-0.3,1.5-1,3-2.2,4.2c-1,0.9-2.2,1.6-3.7,1.9v2.5
	c-1,0.4-2,0.7-3,0.9V46H20v3.5C19,49.3,18,49,17,48.7z M27.2,18.2c-3.2,0.5-6.9-0.1-10.6-3.3c1.9-2,5.3-3.9,9-3.9
	c2.4,0,4.3,0.3,5.8,1.1c1.2,0.6,2.3,1.4,3.2,2.7C32.8,16.2,30.2,17.7,27.2,18.2z M27.7,21.2c3.3-0.5,6.2-2.1,8.2-3.7
	c0.7,2.1,0.9,4.4,1,6.5H13.4c0-2,0.3-4.4,1.4-6.6C19.2,21,23.7,21.8,27.7,21.2z M39.9,29c-0.2,0.3-0.6,0.7-1.6,1l-5.8,0H31v1.5
	c0,0.5,0,1,0,1.5v0v0c0,0.3,0,0.6,0,0.9c0,0.8,0,1.4-0.1,2c-0.1,0.6-0.2,0.8-0.3,0.9C30.6,36.9,30.5,37,30,37
	c-0.8,0-1.2-0.2-1.3-0.3c-0.2-0.1-0.3-0.3-0.5-0.8C28.1,35.4,28,34.8,28,34c0-0.5,0-0.9,0-1.4v0v0c0-0.4,0-0.7,0-1.1V30h-1.5H12.2
	c-0.6-0.2-1.1-0.7-1.1-1.2c-0.1-0.3,0-1.1,1.3-1.8h26.1h0.1l0.1,0c0.1,0,0.3,0,0.6,0.2c0.3,0.2,0.5,0.6,0.6,0.9
	C40.1,28.5,40.1,28.8,39.9,29z M13.5,33.3l0-0.3H25c0,0.4,0,0.8,0,1.1c0,0.9,0.1,1.8,0.3,2.6c0.2,0.9,0.7,1.7,1.6,2.4
	c0.9,0.6,1.9,0.9,3.1,0.9c1.1,0,2.1-0.4,2.8-1.2c0.7-0.7,0.9-1.7,1.1-2.5c0.1-0.8,0.1-1.7,0.1-2.5c0-0.3,0-0.6,0-0.8l3.1,0
	c0.2,2,0.3,4.2-0.1,6.1c-0.3,1.1-0.7,2-1.4,2.7C35,42.4,34,42.9,32.4,43H18.7c-0.8-0.2-1.8-0.7-2.7-1.4c-1-0.7-1.8-1.6-2-2.6
	C13.4,37.1,13.4,35.3,13.5,33.3z"/>
</svg>
