<svg id="logo" viewBox="0 0 32 32"><path fill="var(--color1, #d41442)" d="M32 16c0 8.837-7.163 16-16 16S0 24.837 0 16 7.163 0 16 0s16 7.163 16 16z"></path><path fill="var(--color2, #fff)" d="M10.88 31.163c.624.21 1.265.384 1.92.517v-2.24h7.04v2.096a15.92 15.92 0 001.92-.604v-1.613c.964-.197 1.748-.604 2.36-1.192.779-.749 1.196-1.712 1.416-2.673.355-1.556.232-3.33.122-4.635.648-.283 1.152-.675 1.488-1.172a2.565 2.565 0 00.34-2.139 3.11 3.11 0 00-1.09-1.618 2.725 2.725 0 00-.85-.447l-.003-.06c-.097-1.743-.232-4.19-1.416-6.259-.826-1.445-1.909-2.467-3.258-3.116-1.332-.641-2.862-.887-4.55-.887-3.392 0-6.439 1.914-7.831 3.936-1.573 2.286-1.847 4.925-1.797 6.727-1.155.766-1.698 1.843-1.521 2.967.143.908.744 1.666 1.538 2.077l-.007.268c-.034 1.314-.075 2.879.374 4.449.339 1.186 1.195 2.067 2.037 2.669a8.35 8.35 0 001.766.956v1.995zm6.521-19.518c-2.039.332-4.425-.055-6.813-2.135 1.223-1.298 3.379-2.469 5.732-2.469 1.513 0 2.731.223 3.718.698a5.261 5.261 0 012.019 1.71c-1.079.923-2.739 1.884-4.656 2.197zm.308 1.894c2.121-.346 3.956-1.33 5.256-2.355.479 1.35.568 2.807.649 4.175H8.606c.003-1.253.202-2.805.902-4.247 2.769 2.328 5.661 2.841 8.201 2.427zm7.845 5.034c-.115.171-.396.429-1.049.627H19.84v.96c0 .298.011.639.022.963.007.2.013.393.016.566.01.499 0 .926-.058 1.276-.059.358-.15.526-.216.598-.033.036-.113.117-.404.117-.504 0-.742-.11-.858-.196-.112-.083-.218-.224-.299-.508-.085-.298-.124-.688-.133-1.19-.006-.305-.001-.596.003-.907.003-.225.007-.46.007-.72v-.96H7.79c-.396-.111-.673-.438-.722-.75-.034-.213.009-.691.851-1.17h16.816l.093-.019c.053-.011.197-.004.395.149.194.15.348.375.41.603a.647.647 0 01-.08.561zM8.622 21.29l.004-.17h7.363c-.003.242-.004.483 0 .703.011.548.052 1.139.207 1.68.159.556.453 1.115 1.001 1.522.544.404 1.226.574 2.002.574.732 0 1.365-.24 1.824-.743.426-.467.606-1.059.692-1.582.087-.53.093-1.103.082-1.624a36.256 36.256 0 00-.015-.531h1.972c.103 1.271.188 2.686-.091 3.906-.167.732-.45 1.309-.874 1.717-.408.392-1.026.705-2.023.777h-8.791a6.327 6.327 0 01-1.745-.869c-.657-.47-1.134-1.029-1.307-1.635-.36-1.259-.331-2.447-.301-3.727z"></path></svg>